<?xml version="1.0" encoding="UTF-8"?>
<svg width="32px" height="32px" viewBox="0 0 512 512" version="1.1" xmlns="http://www.w3.org/2000/svg" xmlns:xlink="http://www.w3.org/1999/xlink">
    <!-- Generator: Sketch 52.4 (67378) - http://www.bohemiancoding.com/sketch -->
    <title>Artboard</title>
    <desc>Created with Sketch.</desc>
    <g id="Artboard" stroke="none" stroke-width="1" fill="none" fill-rule="evenodd">
        <g id="Group" transform="translate(6.000000, 29.000000)" fill-rule="nonzero">
            <path d="M335.16029,21.1920395 C313.208977,35.5102825 281.399828,56.767235 239.732843,84.9628971 C177.232366,127.25639 142.635992,152.134639 135.943722,159.597645 C121.614997,175.576579 110.177328,214.332957 83.7198031,247.641106 C66.0814529,269.846539 47.1236663,289.653638 26.8464432,307.062405 C42.8651763,304.598551 61.822963,297.192739 83.7198031,284.84497 C102.217054,274.414251 122.724536,257.721641 142.88589,233.988295 C155.329881,215.099841 155.326737,214.549478 166.978637,199.765159 C187.877877,179.675341 261.524883,149.623525 306.306818,134.851056 C351.088754,120.078586 361.552309,129.059105 406.634276,120.708602 C436.688921,115.1416 456.679792,108.912572 466.606888,102.021519 L498.829122,2.84217094e-14 L335.16029,61.325445 L335.16029,21.1920395 Z" id="Path" fill="#E24329"></path>
            <polygon id="Path-2" fill="#FC6D26" points="498.829122 128.699575 358.66592 146.407399 311.968285 153.916858 248.221362 193.438903 248.221362 211.606599 385.891788 239.669686 436.158256 239.669686"></polygon>
            <polygon id="Path-4" fill="#FC6D26" points="193.373016 240.641711 128.342246 294.889025 158.852283 305.297176 188.025422 296.488409"></polygon>
            <path d="M26.1555959,317.905254 C22.85358,325.177731 21.202572,331.416323 21.202572,336.62103 C21.202572,344.42809 1.70530257e-13,349.234442 1.70530257e-13,374.852177 C1.73137258e-13,394.235746 12.9387503,413.584169 33.4856028,426.819942 C41.9412723,432.266875 56.6061651,441.357256 77.4802812,454.091084 C72.6114376,441.631611 70.7543461,431.260414 71.9090067,422.977493 C73.6409974,410.553112 74.0007391,408.083611 85.9226694,398.567903 C97.8445997,389.052195 206.724265,370.028288 239.24686,374.852177 C260.928591,378.068103 280.939335,389.478853 299.279095,409.084426 L445.284151,299.743538 L407.34875,264.236696 L383.309643,264.236696 L348.979366,247.97757 L248.221362,247.97757 L206.168155,336.62103 C149.984939,334.00935 116.297351,331.999137 105.105391,330.590391 C93.9134314,329.181645 67.596833,324.953266 26.1555959,317.905254 Z" id="Path-5" fill="#FCA326"></path>
        </g>
    </g>
</svg>